<?xml version="1.0" encoding="UTF-8" standalone="no"?>
<svg
   xmlns:dc="http://purl.org/dc/elements/1.1/"
   xmlns:cc="http://creativecommons.org/ns#"
   xmlns:rdf="http://www.w3.org/1999/02/22-rdf-syntax-ns#"
   xmlns:svg="http://www.w3.org/2000/svg"
   xmlns="http://www.w3.org/2000/svg"
   xml:space="preserve"
   enable-background="new 0 0 64 64"
   viewBox="0 0 64 64"
   y="0px"
   x="0px"
   id="Layer_1"
   version="1.1"><metadata
   id="metadata39"><rdf:RDF><cc:Work
       rdf:about=""><dc:format>image/svg+xml</dc:format><dc:type
         rdf:resource="http://purl.org/dc/dcmitype/StillImage" /><dc:title></dc:title></cc:Work></rdf:RDF></metadata><defs
   id="defs37">
	
	
	
	
	
</defs>
<g
   style="fill:#cecece;fill-opacity:1"
   id="g12">
		<g
   style="fill:#cecece;fill-opacity:1"
   id="g10">
			<polygon
   points="36,52 28,49 28,40 13.8,18.8 50.2,18.8 36,40 "
   id="polygon8"
   style="fill:#cecece;fill-opacity:1" />
		</g>
	</g><g
   style="fill:#e6e6e6"
   id="g18">
		<g
   style="fill:#e6e6e6"
   id="g16">
			<polygon
   points="13.8,18.8 28,40 28,49 32,50.5 32,18.8 "
   id="polygon14"
   style="fill:#e6e6e6" />
		</g>
	</g><g
   style="fill:#8c8c8c;fill-opacity:1"
   id="g24">
		<g
   style="fill:#8c8c8c;fill-opacity:1"
   id="g22">
			<path
   d="m 32,13 c 10.5,0 19,2 19,4.5 0,0.4 -0.3,0.9 -0.8,1.3 C 47.9,20.6 40.6,22 32,22 23.4,22 16.1,20.6 13.8,18.8 13.3,18.4 13,18 13,17.5 13,15 21.5,13 32,13 Z"
   id="path20"
   style="fill:#8c8c8c;fill-opacity:1" />
		</g>
	</g><g
   style="fill:#808080"
   id="g30">
		<g
   style="fill:#808080"
   id="g28">
			<path
   d="m 32,13 c -10.5,0 -19,2 -19,4.5 0,0.4 0.3,0.9 0.8,1.3 2.3,1.8 9.6,3.2 18.2,3.2 z"
   id="path26"
   style="fill:#808080" />
		</g>
	</g>
</svg>